<svg width="40" height="40" viewBox="0 0 40 40" fill="none" xmlns="http://www.w3.org/2000/svg">
<path fill-rule="evenodd" clip-rule="evenodd" d="M12.0832 9.10167V11.4683L9.25991 11.6983C8.28996 11.7764 7.3742 12.1774 6.65903 12.8373C5.94387 13.4972 5.4706 14.3778 5.31491 15.3383C5.24603 15.7683 5.18269 16.1989 5.12491 16.63C5.11195 16.7343 5.13218 16.8401 5.18275 16.9322C5.23331 17.0244 5.31163 17.0982 5.40658 17.1433L5.53491 17.2033C14.5832 21.4867 25.4182 21.4867 34.4649 17.2033L34.5932 17.1433C34.6879 17.098 34.7659 17.024 34.8161 16.9319C34.8664 16.8397 34.8864 16.7341 34.8732 16.63C34.8167 16.1986 34.7539 15.768 34.6849 15.3383C34.5292 14.3778 34.056 13.4972 33.3408 12.8373C32.6256 12.1774 31.7099 11.7764 30.7399 11.6983L27.9166 11.47V9.10334C27.9167 8.40476 27.6662 7.72932 27.2104 7.19987C26.7547 6.67042 26.1241 6.32213 25.4332 6.21834L23.3999 5.91334C21.1458 5.57641 18.8541 5.57641 16.5999 5.91334L14.5666 6.21834C13.876 6.32208 13.2456 6.67013 12.7899 7.19924C12.3342 7.72834 12.0835 8.40338 12.0832 9.10167ZM23.0282 8.385C21.0205 8.08512 18.9793 8.08512 16.9716 8.385L14.9382 8.69C14.8396 8.70477 14.7495 8.75443 14.6844 8.82997C14.6192 8.90552 14.5833 9.00192 14.5832 9.10167V11.2933C18.1914 11.0873 21.8084 11.0873 25.4166 11.2933V9.10167C25.4165 9.00192 25.3806 8.90552 25.3155 8.82997C25.2503 8.75443 25.1602 8.70477 25.0616 8.69L23.0282 8.385Z" fill="white"/>
<path d="M35.1964 20.1166C35.1931 20.0627 35.1768 20.0105 35.1488 19.9643C35.1208 19.9181 35.082 19.8794 35.0358 19.8516C34.9896 19.8237 34.9373 19.8075 34.8834 19.8043C34.8295 19.8011 34.7756 19.8111 34.7264 19.8333C25.4414 23.945 14.5581 23.945 5.27307 19.8333C5.22388 19.8111 5.17002 19.8011 5.11613 19.8043C5.06224 19.8075 5.00992 19.8237 4.96369 19.8516C4.91745 19.8794 4.87868 19.9181 4.8507 19.9643C4.82273 20.0105 4.80638 20.0627 4.80307 20.1166C4.63427 23.3074 4.80579 26.5072 5.31474 29.6616C5.47009 30.6225 5.94321 31.5035 6.6584 32.1637C7.3736 32.8239 8.28955 33.2252 9.25974 33.3033L12.3797 33.5533C17.4514 33.9633 22.5464 33.9633 27.6197 33.5533L30.7397 33.3033C31.7099 33.2252 32.6259 32.8239 33.3411 32.1637C34.0563 31.5035 34.5294 30.6225 34.6847 29.6616C35.1947 26.5033 35.3681 23.3033 35.1964 20.1183" fill="white"/>
</svg>
