<svg width="34" height="34" viewBox="0 0 34 34" fill="none" xmlns="http://www.w3.org/2000/svg">
<path d="M17.37 6.72573C17.2711 6.63115 17.1396 6.57837 17.0028 6.57837C16.866 6.57837 16.7344 6.63115 16.6355 6.72573L4.41016 18.4046C4.35824 18.4543 4.31693 18.5139 4.28874 18.58C4.26055 18.6461 4.24605 18.7172 4.24613 18.7891L4.24414 29.7501C4.24414 30.3137 4.46802 30.8542 4.86654 31.2527C5.26505 31.6512 5.80556 31.8751 6.36914 31.8751H12.7508C13.0326 31.8751 13.3028 31.7632 13.5021 31.5639C13.7013 31.3646 13.8133 31.0944 13.8133 30.8126V21.7814C13.8133 21.6405 13.8693 21.5053 13.9689 21.4057C14.0685 21.3061 14.2036 21.2501 14.3445 21.2501H19.657C19.7979 21.2501 19.9331 21.3061 20.0327 21.4057C20.1323 21.5053 20.1883 21.6405 20.1883 21.7814V30.8126C20.1883 31.0944 20.3002 31.3646 20.4995 31.5639C20.6987 31.7632 20.969 31.8751 21.2508 31.8751H27.6298C28.1934 31.8751 28.7339 31.6512 29.1324 31.2527C29.5309 30.8542 29.7548 30.3137 29.7548 29.7501V18.7891C29.7548 18.7172 29.7404 18.6461 29.7122 18.58C29.684 18.5139 29.6427 18.4543 29.5907 18.4046L17.37 6.72573Z" fill="white"/>
<path d="M32.5995 16.2131L27.6323 11.4611V4.25C27.6323 3.96821 27.5204 3.69796 27.3211 3.4987C27.1219 3.29944 26.8516 3.1875 26.5698 3.1875H23.3823C23.1005 3.1875 22.8303 3.29944 22.631 3.4987C22.4318 3.69796 22.3198 3.96821 22.3198 4.25V6.375L18.4736 2.69742C18.1137 2.33352 17.5784 2.125 17 2.125C16.4236 2.125 15.8897 2.33352 15.5298 2.69809L1.40518 16.2118C0.992135 16.6102 0.940338 17.2656 1.3162 17.6973C1.41058 17.8062 1.52615 17.8948 1.65586 17.9577C1.78558 18.0206 1.92673 18.0564 2.07073 18.063C2.21473 18.0696 2.35856 18.0468 2.49348 17.996C2.62839 17.9452 2.75156 17.8675 2.85549 17.7677L16.6348 4.60063C16.7337 4.50605 16.8652 4.45326 17.002 4.45326C17.1388 4.45326 17.2704 4.50605 17.3692 4.60063L31.1499 17.7677C31.3529 17.9623 31.6248 18.0686 31.906 18.0631C32.1872 18.0576 32.4547 17.9409 32.65 17.7384C33.0577 17.3161 33.0239 16.6188 32.5995 16.2131Z" fill="white"/>
</svg>
